<svg xmlns="http://www.w3.org/2000/svg" viewBox="0 0 960 720" role="img" aria-labelledby="title desc">
  <title id="title">Community gathering illustration</title>
  <desc id="desc">A stylized Richmond waterfront community scene with people, mountains, and warm cultural colors.</desc>
  <defs>
    <linearGradient id="sky" x1="0" x2="1" y1="0" y2="1">
      <stop offset="0" stop-color="#f8fbff"/>
      <stop offset="0.55" stop-color="#fff7ed"/>
      <stop offset="1" stop-color="#eefaf7"/>
    </linearGradient>
    <linearGradient id="sunset" x1="0" x2="1">
      <stop offset="0" stop-color="#f97316"/>
      <stop offset="1" stop-color="#0f766e"/>
    </linearGradient>
    <filter id="shadow" x="-20%" y="-20%" width="140%" height="140%">
      <feDropShadow dx="0" dy="18" stdDeviation="18" flood-color="#0f172a" flood-opacity=".16"/>
    </filter>
  </defs>
  <rect width="960" height="720" rx="48" fill="url(#sky)"/>
  <circle cx="748" cy="156" r="72" fill="#fed7aa" opacity=".8"/>
  <path d="M92 314 226 190l100 92 78-70 164 160H92Z" fill="#dbeafe"/>
  <path d="M384 348 558 188l120 118 82-70 130 112H384Z" fill="#d1fae5"/>
  <path d="M80 404c112-32 184-34 290-6 98 26 184 28 290-6 74-24 140-25 220-3v250H80Z" fill="#ffffff" opacity=".9"/>
  <path d="M80 430c112-32 184-34 290-6 98 26 184 28 290-6 74-24 140-25 220-3" fill="none" stroke="#0f766e" stroke-width="8" stroke-linecap="round" opacity=".45"/>
  <g filter="url(#shadow)">
    <rect x="146" y="330" width="668" height="250" rx="36" fill="#fff"/>
    <path d="M146 366h668" stroke="#e2e8f0" stroke-width="2"/>
  </g>
  <g transform="translate(208 414)">
    <circle cx="62" cy="36" r="32" fill="#17324d"/>
    <path d="M8 148c8-54 38-82 54-82s46 28 54 82" fill="#17324d"/>
    <circle cx="210" cy="28" r="28" fill="#c76513"/>
    <path d="M164 148c7-48 32-76 46-76s39 28 46 76" fill="#c76513"/>
    <circle cx="352" cy="36" r="32" fill="#0f766e"/>
    <path d="M298 148c8-54 38-82 54-82s46 28 54 82" fill="#0f766e"/>
    <circle cx="496" cy="28" r="28" fill="#8f3d10"/>
    <path d="M450 148c7-48 32-76 46-76s39 28 46 76" fill="#8f3d10"/>
  </g>
  <path d="M244 622c94 30 197 45 306 34 78-8 142-28 202-52" fill="none" stroke="url(#sunset)" stroke-width="14" stroke-linecap="round" opacity=".75"/>
  <g fill="#17324d" opacity=".16">
    <circle cx="120" cy="132" r="10"/>
    <circle cx="154" cy="162" r="7"/>
    <circle cx="822" cy="268" r="9"/>
    <circle cx="780" cy="292" r="6"/>
  </g>
</svg>
